<?xml version="1.0" standalone="no"?>
<!DOCTYPE svg PUBLIC "-//W3C//DTD SVG 20010904//EN"
 "http://www.w3.org/TR/2001/REC-SVG-20010904/DTD/svg10.dtd">
<svg version="1.0" xmlns="http://www.w3.org/2000/svg"
 width="895.000000pt" height="895.000000pt" viewBox="0 0 895.000000 895.000000"
 preserveAspectRatio="xMidYMid meet">
<metadata>
Created by potrace 1.14, written by Peter Selinger 2001-2017
</metadata>
<g transform="translate(0.000000,895.000000) scale(0.100000,-0.100000)"
fill="#000000" stroke="none">
<path d="M4458 8942 l-48 -3 -1 -57 c-1 -31 0 -67 1 -79 1 -23 1 -23 -150 -23
-166 0 -161 2 -163 -67 l-2 -38 -55 -5 c-54 -5 -55 -6 -54 -35 1 -16 2 -51 3
-77 l1 -47 53 -3 52 -3 -3 -51 c-3 -36 0 -53 10 -56 7 -3 72 -5 143 -6 72 -1
138 -1 147 -2 14 0 16 -13 15 -107 -2 -104 -3 -108 -27 -120 -49 -25 -320
-153 -325 -153 -10 0 -541 -264 -585 -291 l-49 -30 0 -97 c0 -53 0 -144 0
-202 0 -58 1 -258 3 -445 1 -187 1 -349 -1 -361 -3 -13 -29 -34 -76 -59 -179
-97 -245 -131 -434 -226 l-202 -102 2 -174 c1 -96 0 -178 -3 -181 -9 -13 -143
-88 -247 -138 l-102 -49 -2 -85 c0 -47 -1 -138 -1 -203 0 -137 -1 -139 -98
-181 -36 -16 -77 -35 -92 -42 -14 -8 -31 -14 -37 -14 -8 0 -120 -50 -346 -155
-65 -30 -215 -95 -220 -95 -2 0 -75 -35 -162 -78 -87 -43 -184 -88 -215 -101
-66 -27 -78 -49 -77 -146 0 -33 0 -157 0 -275 0 -118 2 -267 4 -330 4 -135 5
-248 6 -540 1 -316 1 -312 29 -346 13 -16 46 -39 72 -52 27 -13 54 -29 61 -36
6 -7 42 -28 78 -48 73 -39 241 -140 249 -149 3 -3 24 -16 47 -29 45 -25 46
-28 45 -110 0 -19 -1 -70 -1 -112 l-1 -77 -50 32 c-28 18 -75 46 -104 62 -29
17 -78 45 -107 63 -92 55 -93 55 -237 -28 -98 -56 -91 -35 -92 -297 -1 -259
-4 -248 85 -322 18 -14 236 -149 430 -266 64 -38 135 -82 158 -96 189 -118
257 -159 263 -159 4 0 22 -11 40 -25 l33 -26 49 25 48 24 -1 -46 c-1 -30 4
-50 14 -59 26 -23 153 -102 175 -109 12 -4 23 -10 26 -14 3 -4 29 -23 59 -43
60 -40 67 -39 148 15 23 15 53 32 67 38 15 5 51 26 82 45 l55 35 -3 388 c-2
247 1 387 7 387 6 0 41 -15 79 -33 38 -18 74 -32 81 -32 7 0 63 34 124 75 62
41 117 75 122 75 6 0 8 -257 4 -720 l-5 -721 88 -56 c166 -107 187 -120 233
-146 25 -15 53 -27 61 -27 9 0 37 18 64 40 26 21 50 37 54 35 3 -2 7 -38 8
-80 2 -66 6 -80 25 -96 12 -10 25 -18 28 -19 3 0 54 -27 113 -60 59 -33 109
-60 111 -60 2 0 49 -29 104 -65 55 -36 103 -65 106 -65 6 0 66 -41 75 -51 3
-3 35 -20 71 -38 61 -30 69 -32 92 -20 87 47 183 102 187 108 3 4 25 19 50 33
278 156 403 234 427 265 23 30 26 43 25 98 l-1 64 61 -39 61 -40 33 25 c18 14
35 25 37 25 3 0 59 33 125 74 99 62 256 154 417 246 137 78 172 97 292 164
105 58 187 109 248 154 24 17 49 32 54 32 6 0 11 5 11 10 0 6 5 10 11 10 13 0
138 86 154 106 6 7 11 46 10 88 0 42 3 76 7 76 4 0 35 -16 68 -36 50 -29 68
-35 95 -30 19 4 41 13 49 21 8 8 17 15 19 15 6 0 174 103 267 164 74 48 207
131 260 161 30 17 162 96 218 130 88 54 134 90 146 114 12 22 15 74 16 227 1
110 -1 207 -5 217 -11 27 -176 131 -241 151 -14 4 -27 1 -36 -8 -9 -8 -30 -21
-49 -29 -19 -8 -54 -29 -79 -48 -45 -34 -131 -88 -160 -100 -14 -6 -16 20 -15
219 l0 227 60 36 c61 36 129 74 265 147 175 92 216 115 229 128 16 15 26 248
16 359 -6 58 -8 61 -47 84 -55 31 -223 91 -257 91 -15 0 -79 -27 -142 -60 -63
-33 -116 -60 -119 -60 -5 0 -2 322 3 325 31 20 173 97 277 150 211 107 285
146 290 156 3 5 5 37 4 71 -2 35 -3 129 -4 211 l-1 147 -42 19 c-23 10 -73 31
-112 45 -38 15 -91 38 -118 52 -26 14 -59 28 -74 30 -15 3 -32 9 -38 14 -7 5
-20 11 -31 13 -10 2 -48 17 -84 34 -36 17 -108 51 -160 76 -52 25 -158 73
-235 107 -77 34 -186 84 -241 112 l-102 51 0 199 c0 183 -1 201 -18 213 -28
19 -87 51 -178 98 -45 22 -98 51 -119 64 l-37 24 5 174 5 174 -32 23 c-18 13
-46 30 -63 37 -16 7 -38 17 -47 22 -117 59 -202 101 -243 118 -64 28 -306 150
-322 163 -8 6 -11 155 -11 556 0 301 -2 556 -4 567 -3 14 -51 43 -174 104
-492 245 -645 320 -699 341 -107 42 -103 36 -104 160 -1 83 1 110 11 111 7 0
74 2 148 3 74 2 139 4 143 5 5 0 8 20 7 44 -3 67 -4 66 48 63 26 -2 52 -1 57
1 6 2 9 34 7 78 -4 83 -2 81 -84 75 -25 -1 -28 2 -29 29 -3 58 -4 69 -10 75
-3 3 -72 7 -152 9 l-147 2 0 81 c0 92 1 91 -82 86z m-53 -325 c4 -13 5 -36 2
-51 l-3 -28 -147 -3 -147 -2 0 53 0 53 145 0 c142 0 145 0 150 -22z m432 -35
l-2 -47 -147 -3 -148 -3 0 50 0 51 121 -1 c67 0 123 2 125 4 3 2 15 2 28 0 21
-4 24 -10 23 -51z m1684 -6166 c0 -159 -3 -291 -5 -293 -2 -3 -25 7 -51 21
-40 21 -51 23 -74 13 -37 -15 -157 -86 -335 -195 l-54 -33 -1 -91 c-1 -49 -4
-94 -7 -99 -3 -5 -41 -27 -85 -48 l-79 -39 0 26 c-1 15 -2 85 -3 155 -1 71 0
132 3 136 7 10 120 85 155 103 88 44 234 143 249 168 6 8 10 83 11 167 1 84 4
156 9 160 13 14 251 141 260 139 4 -1 8 -132 7 -290z m-1527 -468 c-5 -941 -5
-907 -15 -914 -5 -3 -31 9 -57 26 l-47 30 1 283 c1 155 2 343 3 417 0 74 1
142 1 150 0 8 2 166 4 350 2 184 4 340 5 347 1 12 77 60 97 62 9 1 11 -189 8
-751z m-1004 697 l49 -25 -2 -739 c-1 -407 -4 -741 -7 -744 -3 -3 -28 -19 -57
-35 l-52 -31 4 797 c1 438 3 798 4 800 2 5 14 1 61 -23z"/>
</g>
</svg>
